<svg id="Layer_1" data-name="Layer 1" xmlns="http://www.w3.org/2000/svg" xmlns:xlink="http://www.w3.org/1999/xlink" viewBox="0 0 6991.68 3491.69"><defs><style>.cls-1{fill:none;}.cls-2{clip-path:url(#clip-path);}.cls-3{clip-path:url(#clip-path-2);}.cls-4{fill:url(#linear-gradient);}.cls-5{fill:#fff;fill-rule:evenodd;opacity:0.15;}</style><clipPath id="clip-path" transform="translate(-4.16 -4.16)"><rect class="cls-1" width="7000" height="3500"/></clipPath><clipPath id="clip-path-2" transform="translate(-4.16 -4.16)"><rect class="cls-1" x="4.16" y="4.16" width="6991.68" height="3491.69"/></clipPath><linearGradient id="linear-gradient" x1="-3.85" y1="3483.93" x2="6995.53" y2="7.75" gradientUnits="userSpaceOnUse"><stop offset="0" stop-color="#6a00b8"/><stop offset="1" stop-color="#db17b9"/></linearGradient></defs><g class="cls-2"><g class="cls-3"><rect class="cls-4" width="6991.68" height="3491.69"/></g><path class="cls-5" d="M2086.89,3258.13H4.16v237.71H242.72a152.66,152.66,0,0,1,19.83-1.28H2831.7c65.09,0,118.35-53.2,118.35-118.22s-53.26-118.21-118.35-118.21Zm3549.49-1932H6995.84V5.44H5488.14c-65.1,0-118.36,53.2-118.36,118.22S5423,241.87,5488.14,241.87H6713.53c84.17,0,153,68.78,153,152.85s-68.86,152.84-153,152.84H4806.7c-65.1,0-118.36,53.19-118.36,118.21S4741.6,784,4806.7,784H6474.43c84.16,0,153,68.77,153,152.84s-68.86,152.84-153,152.84H5636.38c-65.1,0-118.36,53.2-118.36,118.22S5571.28,1326.1,5636.38,1326.1Zm-736.44,542.12h2095.9V1631.79H4899.94c-65.09,0-118.35,53.19-118.35,118.21S4834.85,1868.22,4899.94,1868.22Zm13.17,1084.22H6995.84V2173.9H4517.38c-65.1,0-118.35,53.2-118.35,118.21s53.25,118.22,118.35,118.22H6718.32c84.16,0,153,68.78,153,152.84s-68.86,152.84-153,152.84h-2550c-65.09,0-118.35,53.2-118.35,118.22s53.26,118.21,118.35,118.21ZM4168.3,3258.13c-65.09,0-118.35,53.19-118.35,118.21s53.26,118.22,118.35,118.22H6737.45a152.66,152.66,0,0,1,19.83,1.28h238.56V3258.13H4168.3ZM2482.62,2173.9H4.16v778.54H2831.7c65.09,0,118.35-53.19,118.35-118.21S2896.79,2716,2831.7,2716h-2550c-84.16,0-153-68.78-153-152.84s68.86-152.84,153-152.84H2482.62c65.1,0,118.35-53.2,118.35-118.22S2547.72,2173.9,2482.62,2173.9ZM731.19,1631.79H4.16v236.43h2095.9c65.09,0,118.35-53.2,118.35-118.22s-53.26-118.21-118.35-118.21ZM4.16,1326.1H1363.62c65.1,0,118.36-53.2,118.36-118.21s-53.26-118.22-118.36-118.22h-838c-84.16,0-153-68.78-153-152.84S441.41,784,525.57,784H2193.3c65.1,0,118.36-53.2,118.36-118.22S2258.4,547.56,2193.3,547.56H286.47c-84.16,0-153-68.78-153-152.84s68.87-152.85,153-152.85H1511.86c65.1,0,118.36-53.19,118.36-118.21S1577,5.44,1511.86,5.44H4.16Z" transform="translate(-4.16 -4.16)"/></g></svg>